<svg width="190" height="56" viewBox="0 0 190 56" fill="none" xmlns="http://www.w3.org/2000/svg">
<path d="M29 0.660569C29 0.29065 28.6758 0 28.2632 0H0.736789C0.324187 0 0 0.29065 0 0.660569V25.3394C0 25.7093 0.324187 26 0.736789 26H28.2632C28.6758 26 29 25.7093 29 25.3394V0.660569ZM25.9202 16.3161L25.2718 17.7561L23.2236 17.5579L23.1794 17.6108C23.0173 17.8618 22.8257 18.1128 22.6341 18.3506L22.5899 18.4035L23.592 20.0152L22.3689 21.125L20.5711 20.2266L20.5122 20.2662C20.2764 20.4248 20.0259 20.5833 19.7754 20.7154L19.7165 20.7551L19.967 22.5915L18.3755 23.1992L17.0788 21.7591L17.0051 21.7724C16.6809 21.8516 16.3567 21.9044 16.0473 21.9441L15.9736 21.9573L15.4136 23.7408H13.6748L13.1001 21.9705L13.0264 21.9573C12.7317 21.9177 12.437 21.8648 12.1423 21.7988L12.0686 21.7856L10.8013 23.2388L9.19512 22.6575L9.41616 20.8211L9.35721 20.7815C9.07723 20.6362 8.79726 20.4644 8.53201 20.2927L8.47307 20.253L6.6753 21.1514L5.4375 20.0549L6.43953 18.4431L6.39533 18.3902C6.2185 18.1789 6.04166 17.9543 5.89431 17.7297L5.8501 17.6768L3.80183 17.9014L3.12398 16.4746L4.73018 15.312L4.71544 15.2459C4.62703 14.9685 4.56809 14.6778 4.52388 14.3872L4.50914 14.3211L2.51982 13.8191V12.2602L4.49441 11.7449L4.50914 11.6788C4.55335 11.4146 4.6123 11.1504 4.68598 10.8862L4.70071 10.8201L3.07978 9.68395L3.72815 8.24389L5.77642 8.44206L5.82063 8.38923C5.98272 8.13821 6.17429 7.88718 6.36585 7.64938L6.41006 7.59654L5.40803 5.98476L6.63109 4.87499L8.42886 5.77337L8.4878 5.73373C8.72358 5.57519 8.97408 5.41667 9.22459 5.28455L9.28353 5.24491L9.03303 3.40854L10.6245 2.80081L11.9212 4.24083L11.9949 4.22764C12.3044 4.16158 12.6286 4.09552 12.9527 4.05589L13.0264 4.04266L13.5864 2.25913H15.3252L15.8999 4.02947L15.9736 4.04266C16.2683 4.0823 16.563 4.13517 16.8577 4.20122L16.9314 4.21442L18.1987 2.76117L19.8049 3.34249L19.5838 5.17885L19.6428 5.21849C19.9228 5.36382 20.2027 5.53556 20.468 5.70731L20.5269 5.74695L22.3247 4.84857L23.5625 5.94512L22.5605 7.5569L22.6047 7.60973C22.7815 7.82112 22.9436 8.04571 23.1057 8.2703L23.1499 8.32317L25.1982 8.09858L25.876 9.52538L24.2698 10.688L24.2846 10.754C24.373 11.0447 24.4319 11.3354 24.4761 11.6128L24.4909 11.6788L26.4802 12.1809V13.7398L24.5056 14.2551L24.4909 14.3211C24.4466 14.5853 24.3877 14.8496 24.314 15.1138L24.2993 15.1799L25.9202 16.3161Z" fill="#FE1620"/>
<path d="M11.5775 6.55332C7.76863 8.05732 5.98141 12.1728 7.59284 15.7277C9.20427 19.2826 13.6137 20.9507 17.4225 19.4467C21.2314 17.9427 23.0186 13.8272 21.4072 10.2723C19.7957 6.71739 15.3863 5.04932 11.5775 6.55332Z" fill="#FE1620"/>
<path d="M21 38C21 38.5523 20.5523 39 20 39C19.4477 39 19 38.5523 19 38C19 37.4477 19.4477 37 20 37C20.5523 37 21 37.4477 21 38Z" fill="#234EDB"/>
<path d="M4.02534 48.8789C2.65822 50.0507 2.65822 51.9493 4.02534 53.1211C5.39246 54.293 7.60754 54.293 8.97466 53.1211C10.3418 51.9493 10.3418 50.0507 8.97466 48.8789C7.60754 47.707 5.39246 47.707 4.02534 48.8789ZM8.64586 52.8838C7.45179 53.9073 5.5136 53.9073 4.31953 52.8838C3.12547 51.8603 3.12547 50.199 4.31953 49.1755C4.49259 49.0272 4.66564 48.9085 4.856 48.8047C4.80408 48.8492 4.75217 48.8937 4.70025 48.9382C3.52349 49.9468 3.52349 51.5636 4.70025 52.5723C5.87701 53.5809 7.76329 53.5809 8.94005 52.5723C8.99197 52.5278 9.04388 52.4833 9.0958 52.4388C8.95736 52.5871 8.81891 52.7355 8.64586 52.8838Z" fill="#234EDB"/>
<path d="M29 30.6606C29 30.2907 28.6758 30 28.2632 30H0.736789C0.324187 30 0 30.2907 0 30.6606V55.3394C0 55.7093 0.324187 56 0.736789 56H28.2632C28.6758 56 29 55.7093 29 55.3394V30.6606ZM21.1606 43.8719C20.6153 44.3608 20.3943 43.8059 20.6006 43.6209C21.2637 43.0264 20.2027 41.5732 19.3186 40.5956C18.0661 41.5996 12.1865 46.2764 11.2729 49.9228C11.2729 49.9228 11.5086 50.1341 11.7444 50.3455C12.0833 50.6494 12.1128 51.0457 11.5823 51.5081C11.2729 51.7856 7.48577 55.1809 7.30894 55.3394C7.13211 55.498 5.99746 54.9563 5.93852 54.2429L6.18902 54.0315C6.18902 54.0315 4.92175 53.8598 3.84604 52.8953C2.77032 51.9309 2.57876 50.7947 2.57876 50.7947L2.34299 51.0061C1.53252 50.9532 0.928352 49.9492 1.11992 49.7775C1.29675 49.6189 5.09858 46.2104 5.39329 45.9462C5.90904 45.4838 6.35112 45.497 6.69004 45.8008C6.91108 45.999 7.16158 46.2236 7.16158 46.2236C11.2287 45.3913 16.4451 40.1199 17.565 39.0102C16.4746 38.2175 14.8389 37.2795 14.1905 37.8608C13.9842 38.0457 13.3653 37.8476 13.9106 37.3588C14.2642 37.0417 16.7104 34.8486 18.405 33.3293C18.9649 33.6992 20.5859 34.809 22.2952 36.3547C24.0193 37.9004 25.2571 39.3537 25.6697 39.8425C23.9604 41.3618 21.5142 43.5549 21.1606 43.8719ZM26.3623 39.6047C26.4212 39.684 26.4065 39.7896 26.3181 39.8425C26.2444 39.8953 26.1413 39.8821 26.0823 39.8293C26.0676 39.8161 26.0676 39.8161 26.0676 39.8029C26.0528 39.7897 24.6677 38.0193 22.5457 36.1301C20.4238 34.2277 18.4639 32.9858 18.4492 32.9726C18.3608 32.9197 18.346 32.814 18.405 32.7348C18.4639 32.6555 18.5818 32.6423 18.6702 32.6951C18.6702 32.6951 18.7586 32.7612 18.9207 32.8669C18.9944 32.8008 19.0828 32.7216 19.1565 32.6555C19.7165 33.0254 21.3374 34.1352 23.0467 35.6809C24.7708 37.2266 26.0086 38.6799 26.4212 39.1687C26.3476 39.2348 26.2739 39.3008 26.1855 39.3801C26.2886 39.5254 26.3476 39.6047 26.3623 39.6047ZM27.2906 38.376C27.2612 38.4025 27.1286 38.5214 26.9223 38.7063C27.0401 38.8516 27.0991 38.9309 27.1138 38.9309C27.1728 39.0102 27.158 39.1159 27.0696 39.1687C26.9812 39.2216 26.8633 39.2083 26.8044 39.1291C26.7896 39.1159 25.4045 37.3455 23.2825 35.4563C21.1606 33.5539 19.2007 32.312 19.186 32.2988C19.1712 32.2988 19.1712 32.2856 19.1565 32.2856C19.0976 32.2327 19.0828 32.1403 19.1418 32.0742C19.2007 31.9949 19.3186 31.9817 19.407 32.0346C19.407 32.0346 19.5102 32.1006 19.6575 32.2063C19.8638 32.0214 19.9964 31.9025 20.0259 31.876C20.2617 31.6647 21.0427 31.8496 24.1814 34.6636C27.3201 37.4644 27.5264 38.1647 27.2906 38.376Z" fill="#234EDB"/>
<path d="M56.7291 19.1288C56.6221 19.0215 56.4348 18.9812 56.301 19.008L54.7491 19.4239C54.6153 19.4641 54.4682 19.5983 54.428 19.7458L54.0133 21.3018C53.9732 21.4359 54.0267 21.6371 54.1337 21.731L55.2709 22.8712C55.3779 22.9785 55.5652 23.0188 55.699 22.992L57.2509 22.5761C57.3847 22.5359 57.5318 22.4017 57.5719 22.2542L57.9867 20.6982C58.0268 20.564 57.9733 20.3628 57.8663 20.2689L56.7291 19.1288Z" fill="#234EDB"/>
<path d="M62.2632 0H34.7368C34.3242 0 34 0.29065 34 0.660569V25.3394C34 25.7093 34.3242 26 34.7368 26H62.2632C62.6758 26 63 25.7093 63 25.3394V0.660569C63 0.303862 62.6758 0 62.2632 0ZM60.5833 21.8912C60.5539 22.063 60.4065 22.3536 60.1118 22.6179C59.9792 22.7368 59.1982 23.437 58.9329 23.6748C58.653 23.9258 58.5203 23.9786 57.9162 24.0711C57.5036 24.1372 56.3247 24.2957 55.7058 24.2032C54.9543 24.0843 54.0407 23.1992 53.4807 22.6972C51.9187 21.2967 53.3186 19.2358 52.685 18.6677C52.5965 18.5884 42.7383 9.69715 42.6057 9.57825C41.9721 9.01016 39.688 10.0538 38.185 8.70629C37.6397 8.21746 36.6966 7.43801 36.5788 6.77744C36.4609 6.11687 36.7556 4.74287 36.7556 4.74287C36.7556 4.74287 38.6123 6.42072 38.9218 6.69816C39.3933 7.12093 40.0564 6.71137 40.749 6.13007C41.4121 5.52234 41.8542 4.92782 41.3974 4.50506C41.0879 4.22762 39.2165 2.5498 39.2165 2.5498C39.2165 2.5498 40.7637 2.28556 41.4858 2.40446C42.2226 2.52337 43.0772 3.3689 43.6225 3.85772C45.1255 5.20528 43.9467 7.25304 44.5656 7.82113C44.7129 7.95324 54.6153 16.7917 54.689 16.8709C55.3227 17.439 57.5772 16.25 59.1245 17.6504C59.6845 18.1656 60.6717 18.9715 60.7896 19.6585C60.9075 20.1606 60.6865 21.3364 60.5833 21.8912Z" fill="#234EDB"/>
<path d="M44.4429 43.6168C43.0084 43.3281 41.4206 43.1444 40.585 43.0525C40.5571 43.0525 40 43 40 43C40 43 40.2368 43.0788 40.585 43.2494C40.585 43.3281 40.585 43.4068 40.585 43.4725C40.585 44.9948 41.1281 46.399 42.0474 47.5144C41.9359 47.7244 41.7688 48 41.7688 48C41.8384 47.9475 41.8942 47.895 41.9638 47.8425C41.9638 47.8425 41.9777 47.8425 41.9777 47.8294C42.0474 47.7769 42.1031 47.7244 42.1727 47.6719C43.2312 46.832 44.3593 45.7559 45 45.1522C44.6657 44.7061 44.4708 44.1811 44.4429 43.6168Z" fill="#FE1620"/>
<path d="M49.9129 49.6552C49.8881 49.5517 49.8507 49.4483 49.8259 49.3621C49.3532 47.7759 48.7065 46 48.3333 45C48.0846 45.1034 47.8234 45.1552 47.5498 45.1552C47.2886 45.1552 47.0398 45.1034 46.791 45.0172C46.1318 46.5862 45.5224 48.3793 45.2114 49.3276C45.1368 49.5517 45.0871 49.7241 45.0497 49.8448C45.0497 49.862 45 50 45 50C45 50 45.1368 49.7586 45.3856 49.4138C46.0572 49.7586 46.791 49.9483 47.5498 49.9483C48.2836 49.9483 48.9925 49.7759 49.6393 49.4483C49.7886 49.6724 50 49.9655 50 49.9655C49.9751 49.8621 49.9502 49.7758 49.9129 49.6724C49.9129 49.6724 49.9129 49.6724 49.9129 49.6552Z" fill="#FE1620"/>
<path d="M49 43C49 43.5523 48.5523 44 48 44C47.4477 44 47 43.5523 47 43C47 42.4477 47.4477 42 48 42C48.5523 42 49 42.4477 49 43Z" fill="#FE1620"/>
<path d="M41.2387 39.1807C41.3183 39.2188 41.4138 39.2697 41.4934 39.3079C42.8462 39.9695 44.4695 40.631 45.4085 41C45.8223 40.5802 46.3634 40.2494 47 40.0585C46.8249 38.7227 46.4748 37.285 46.2838 36.5344C46.2202 36.2926 46.1724 36.1145 46.1565 36.0382V36.0255V36.0127V36C46.1565 36 46.1406 36.229 46.0769 36.5725C44.2626 36.9924 42.7029 37.9084 41.6525 39.117C41.382 39.0789 41 39.028 41 39.028C41.0637 39.0789 41.1432 39.1298 41.2387 39.1807C41.2387 39.1679 41.2387 39.1679 41.2387 39.1807Z" fill="#FE1620"/>
<path d="M50 45.0649C51.3466 46.2078 52.983 47.3506 53.6307 47.8052C53.6989 47.8442 53.9205 48 53.9205 48C53.9205 48 53.75 47.8052 53.5284 47.4805C54.6875 46.3636 55.3693 44.948 55.3693 43.4156C55.3693 43.3506 55.3693 43.2857 55.3693 43.2338C55.642 43.1299 56 43 56 43C55.8977 43 55.7955 43.013 55.6932 43.013H55.6761C55.5739 43.013 55.4716 43.026 55.3523 43.026C53.6648 43.1299 51.7216 43.3636 50.6307 43.5065C50.6136 44.0909 50.392 44.6234 50 45.0649Z" fill="#FE1620"/>
<path d="M47.5 35C42.2581 35 38 38.5858 38 43C38 47.4142 42.2581 51 47.5 51C52.7419 51 57 47.4142 57 43C57 38.5858 52.7419 35 47.5 35ZM47.5 50.5425C42.5518 50.5425 38.5433 47.1669 38.5433 43C38.5433 38.8331 42.5518 35.4575 47.5 35.4575C52.4482 35.4575 56.4567 38.8331 56.4567 43C56.4567 47.1669 52.4482 50.5425 47.5 50.5425Z" fill="#FE1620"/>
<path d="M50.0388 36.5339C49.9922 36.3125 49.9457 36 49.9457 36C49.9147 36.0781 49.8992 36.1563 49.8682 36.2344V36.2474C49.8372 36.3255 49.8217 36.4036 49.7907 36.4818C49.4341 37.7318 49.155 39.2161 49 40.0625C49.6202 40.2448 50.1628 40.5833 50.5659 41C52.0543 40.4401 53.6202 39.7109 54.4264 39.3203C54.7519 39.1641 54.969 39.0599 55 39.0469C55 39.0469 54.7209 39.112 54.3023 39.1641C53.3101 37.9141 51.8062 36.9766 50.0388 36.5339Z" fill="#FE1620"/>
<path d="M63 30.6606C63 30.2907 62.6758 30 62.2632 30H34.7368C34.3242 30 34 30.2907 34 30.6606V55.3394C34 55.7093 34.3242 56 34.7368 56H62.2632C62.6758 56 63 55.7093 63 55.3394V30.6606ZM60.8191 43.2246C60.5686 43.1585 60.3181 43.0528 60.3181 43.0528C60.5244 43.2378 60.7012 43.3435 60.8191 43.4095C60.8044 43.6738 60.7896 43.9248 60.7602 44.1758C60.5244 44.0965 60.2739 43.9645 60.2739 43.9645C60.4654 44.1626 60.6275 44.2815 60.7454 44.3608C60.716 44.6118 60.6717 44.876 60.6128 45.127C60.377 45.0213 60.1413 44.876 60.1413 44.876C60.3181 45.0874 60.4654 45.2327 60.5686 45.312C60.5097 45.563 60.436 45.814 60.3623 46.065C60.1413 45.9461 59.9202 45.7876 59.9202 45.7876C60.0676 46.0122 60.2149 46.1575 60.3034 46.25C60.2149 46.501 60.1265 46.7388 60.0234 46.9766C59.8171 46.8445 59.6108 46.6596 59.6108 46.6596C59.7434 46.8974 59.8613 47.0559 59.9497 47.1484C59.8465 47.3862 59.7287 47.624 59.596 47.8486C59.4045 47.7033 59.2129 47.5051 59.2129 47.5051C59.3161 47.7561 59.4339 47.9146 59.5076 48.0203C59.375 48.2449 59.2424 48.4695 59.095 48.6941C58.9182 48.5356 58.7414 48.3242 58.7414 48.3242C58.8298 48.5752 58.9182 48.747 58.9771 48.8659C58.8298 49.0904 58.6677 49.3018 58.4909 49.5C58.3288 49.3283 58.1814 49.1037 58.1814 49.1037C58.2403 49.3547 58.314 49.5396 58.3582 49.6585C58.1814 49.8699 58.0046 50.0681 57.813 50.253C57.6656 50.0681 57.5478 49.8303 57.5478 49.8303C57.5772 50.0945 57.6362 50.2795 57.6804 50.3984C57.4888 50.5833 57.2825 50.7683 57.0762 50.9533C56.9583 50.7551 56.8552 50.5173 56.8552 50.5173C56.8699 50.7815 56.8994 50.9665 56.9289 51.0854C56.7226 51.2571 56.5015 51.4289 56.2805 51.5874C56.1773 51.376 56.1037 51.125 56.1037 51.125C56.0889 51.3892 56.1037 51.5742 56.1184 51.7063C55.8974 51.8648 55.6616 52.0102 55.4258 52.1555C55.3374 51.9441 55.2932 51.6799 55.2932 51.6799C55.249 51.9441 55.249 52.1291 55.249 52.2612C55.0132 52.4065 54.7627 52.5386 54.5122 52.6575C54.4533 52.4329 54.4238 52.1819 54.4238 52.1819C54.3501 52.4329 54.3354 52.6311 54.3354 52.75C54.0849 52.8689 53.8196 52.9878 53.5544 53.0935C53.5102 52.8689 53.5102 52.6047 53.5102 52.6047C53.4217 52.8557 53.3775 53.0539 53.3628 53.1728C53.0976 53.2785 52.8323 53.3709 52.5523 53.4502C52.5376 53.2256 52.5523 52.9614 52.5523 52.9614C52.4345 53.1992 52.3755 53.3974 52.346 53.5163C52.0808 53.5955 51.8008 53.6616 51.5208 53.7276C51.5208 53.5031 51.565 53.2388 51.565 53.2388C51.4324 53.4766 51.344 53.6484 51.3145 53.7673C51.0346 53.8201 50.7546 53.873 50.4746 53.9126C50.5041 53.688 50.563 53.437 50.563 53.437C50.4009 53.6616 50.3125 53.8334 50.2536 53.939C49.9736 53.9787 49.6789 54.0051 49.3989 54.0183C49.4431 53.7937 49.5462 53.5559 49.5462 53.5559C49.3694 53.7673 49.2515 53.9258 49.1926 54.0315C48.9715 54.0447 48.7505 54.0447 48.5442 54.0447C48.4705 54.0447 48.4116 54.0447 48.3379 54.0447C48.4116 53.8201 48.5295 53.5955 48.5295 53.5955C48.3232 53.7805 48.2053 53.939 48.1316 54.0447C47.8369 54.0315 47.5569 54.0183 47.2769 53.9919C47.3653 53.7805 47.5127 53.5559 47.5127 53.5559C47.2917 53.7276 47.159 53.873 47.0706 53.9787C46.7907 53.9522 46.4959 53.9126 46.216 53.8598C46.3338 53.6484 46.4812 53.437 46.4812 53.437C46.2454 53.5955 46.0981 53.7276 45.9949 53.8201C45.7149 53.7673 45.435 53.7012 45.155 53.6352C45.2876 53.437 45.4644 53.2388 45.4644 53.2388C45.2139 53.3709 45.0518 53.503 44.9487 53.5823C44.6687 53.503 44.4035 53.4238 44.1382 53.3313C44.2856 53.1463 44.4919 52.9614 44.4919 52.9614C44.2266 53.0803 44.0498 53.186 43.9467 53.2653C43.6814 53.1728 43.4162 53.0671 43.1657 52.9482C43.3278 52.7764 43.5488 52.6047 43.5488 52.6047C43.2688 52.6972 43.092 52.8029 42.9741 52.8689C42.7236 52.75 42.4731 52.6311 42.2226 52.499C42.3994 52.3404 42.6352 52.1819 42.6352 52.1819C42.3552 52.2612 42.1636 52.3404 42.0457 52.3933C41.7952 52.2612 41.5595 52.1159 41.3384 51.9573C41.53 51.812 41.7805 51.6799 41.7805 51.6799C41.5005 51.7327 41.2942 51.7988 41.1616 51.8516C40.9258 51.6931 40.7048 51.5346 40.4837 51.3628C40.69 51.2307 40.9553 51.125 40.9553 51.125C40.6606 51.1514 40.4543 51.2043 40.3216 51.2439C40.1006 51.0722 39.8943 50.8872 39.7027 50.7023C39.9238 50.5834 40.189 50.4909 40.189 50.4909C39.8943 50.5041 39.688 50.5305 39.5554 50.5569C39.3638 50.372 39.1723 50.1738 38.9807 49.9756C39.2165 49.8832 39.4964 49.8039 39.4964 49.8039C39.2017 49.7907 38.9954 49.8039 38.8481 49.8171C38.6712 49.6189 38.4944 49.4075 38.3323 49.1961C38.5681 49.1169 38.8628 49.064 38.8628 49.064C38.5681 49.0244 38.3618 49.0244 38.2144 49.0376C38.0523 48.8262 37.905 48.6016 37.7724 48.377C38.0229 48.3242 38.3028 48.2978 38.3028 48.2978C38.0229 48.2317 37.8018 48.2185 37.6692 48.2185C37.5366 47.9939 37.404 47.7561 37.2861 47.5315C37.5366 47.4919 37.8313 47.4919 37.8313 47.4919C37.5513 47.4126 37.3303 47.373 37.1977 47.3598C37.0798 47.122 36.9766 46.8841 36.8882 46.6463C37.1387 46.6331 37.4334 46.6463 37.4334 46.6463C37.1682 46.5406 36.9472 46.4878 36.8145 46.4614C36.7261 46.2236 36.6377 45.9726 36.5788 45.7215C36.8293 45.7215 37.124 45.7612 37.124 45.7612C36.8587 45.6423 36.6672 45.563 36.5346 45.5366C36.4756 45.2856 36.4167 45.0346 36.3725 44.7836C36.623 44.81 36.9029 44.8628 36.9029 44.8628C36.6524 44.7175 36.4609 44.6382 36.343 44.5986C36.2988 44.3476 36.2693 44.0834 36.2546 43.8323C36.5051 43.872 36.7851 43.9512 36.7851 43.9512C36.5493 43.7927 36.3725 43.687 36.2546 43.6342C36.2398 43.4228 36.2398 43.2246 36.2398 43.0132C36.2398 42.9604 36.2398 42.9075 36.2398 42.8679C36.4903 42.934 36.7556 43.0397 36.7556 43.0397C36.5493 42.8547 36.3725 42.749 36.2546 42.6829C36.2693 42.4187 36.284 42.1677 36.3135 41.9167C36.5493 41.996 36.7998 42.1281 36.7998 42.1281C36.6082 41.9299 36.4461 41.811 36.3283 41.7317C36.3577 41.4675 36.4019 41.2165 36.4609 40.9654C36.6966 41.0579 36.9324 41.2033 36.9324 41.2033C36.7556 40.9919 36.6082 40.8598 36.5051 40.7805C36.564 40.5295 36.6377 40.2785 36.7114 40.0275C36.9324 40.1464 37.1535 40.3049 37.1535 40.3049C36.9914 40.0803 36.8587 39.935 36.7703 39.8425C36.8587 39.5915 36.9472 39.3537 37.0503 39.1159C37.2566 39.248 37.4629 39.4329 37.4629 39.4329C37.3303 39.1951 37.1977 39.0366 37.124 38.9441C37.2271 38.7063 37.345 38.4685 37.4776 38.2439C37.6692 38.3892 37.8608 38.5874 37.8608 38.5874C37.7576 38.3364 37.6397 38.1779 37.5661 38.0722C37.6987 37.8476 37.8313 37.623 37.9787 37.3984C38.1555 37.5569 38.3323 37.7683 38.3323 37.7683C38.2439 37.5173 38.1555 37.3455 38.0965 37.2398C38.2439 37.0152 38.406 36.8039 38.5681 36.5925C38.7302 36.7642 38.8775 36.9888 38.8775 36.9888C38.8186 36.7378 38.7449 36.5529 38.686 36.434C38.8628 36.2226 39.0396 36.0244 39.2312 35.8262C39.3786 36.0112 39.4964 36.249 39.4964 36.249C39.467 35.9848 39.408 35.7998 39.3638 35.6809C39.5554 35.4827 39.747 35.2978 39.9533 35.126C40.0859 35.3242 40.189 35.562 40.189 35.562C40.1743 35.2978 40.1448 35.1128 40.1153 34.9939C40.3216 34.8222 40.5427 34.6504 40.7637 34.4787C40.8669 34.6901 40.9553 34.9411 40.9553 34.9411C40.97 34.6768 40.9553 34.4919 40.9258 34.373C41.1468 34.2144 41.3826 34.0559 41.6184 33.9106C41.7068 34.122 41.7658 34.3862 41.7658 34.3862C41.81 34.122 41.81 33.937 41.7952 33.8049C42.031 33.6596 42.2815 33.5274 42.532 33.4085C42.591 33.6331 42.6352 33.8842 42.6352 33.8842C42.6941 33.6331 42.7236 33.435 42.7236 33.3161C42.9741 33.1972 43.2393 33.0783 43.4898 32.9726C43.534 33.1972 43.5341 33.4614 43.5341 33.4614C43.6225 33.2104 43.6667 33.0122 43.6814 32.8933C43.9467 32.7876 44.2119 32.6951 44.4771 32.6159C44.4919 32.8405 44.4771 33.1047 44.4771 33.1047C44.595 32.8669 44.654 32.6687 44.6687 32.5498C44.9339 32.4705 45.2139 32.3913 45.4939 32.3384C45.4939 32.563 45.4497 32.8273 45.4497 32.8273C45.5823 32.5894 45.656 32.4177 45.7002 32.2988C45.9802 32.246 46.2602 32.1931 46.5401 32.1535C46.5107 32.3781 46.4517 32.6291 46.4517 32.6291C46.6138 32.4045 46.7022 32.2327 46.7464 32.1138C47.0264 32.0742 47.3211 32.0478 47.6011 32.0346C47.5569 32.2592 47.4685 32.5102 47.4685 32.5102C47.6453 32.2988 47.7632 32.1402 47.8222 32.0213C48.0727 32.0081 48.3084 31.9949 48.5589 31.9949C48.6621 31.9949 48.7505 31.9949 48.8537 31.9949C48.78 32.2195 48.6621 32.4441 48.6621 32.4441C48.8684 32.2591 48.9863 32.1006 49.06 31.9949C49.3547 32.0081 49.6347 32.0213 49.9146 32.0478C49.8262 32.2591 49.6789 32.4837 49.6789 32.4837C49.8999 32.312 50.0473 32.1667 50.1209 32.061C50.4009 32.0874 50.6956 32.1402 50.9756 32.1799C50.8577 32.3913 50.6956 32.6027 50.6956 32.6027C50.9314 32.4441 51.0935 32.312 51.1819 32.2195C51.4619 32.2724 51.7419 32.3384 52.0219 32.4045C51.8892 32.6027 51.7124 32.8008 51.7124 32.8008C51.9629 32.6687 52.125 32.5366 52.2282 32.4573C52.5081 32.5366 52.7734 32.6159 53.0386 32.7083C52.8913 32.8933 52.685 33.0783 52.685 33.0783C52.9502 32.9594 53.127 32.8537 53.2302 32.7744C53.4954 32.8669 53.7607 32.9726 54.0112 33.0915C53.8491 33.2632 53.6281 33.435 53.6281 33.435C53.908 33.3425 54.0849 33.2368 54.2027 33.184C54.4533 33.3029 54.7038 33.4217 54.9543 33.5671C54.7774 33.7256 54.5417 33.8842 54.5417 33.8842C54.8216 33.8049 55.028 33.7256 55.1458 33.6728C55.3816 33.8049 55.6321 33.9502 55.8532 34.1088C55.6616 34.2541 55.4111 34.3862 55.4111 34.3862C55.6911 34.3334 55.8974 34.2673 56.03 34.2276C56.2658 34.3862 56.4868 34.5447 56.6931 34.7165C56.4868 34.8486 56.2215 34.9543 56.2215 34.9543C56.5163 34.9278 56.7226 34.875 56.8552 34.8354C57.0615 35.0071 57.2678 35.1921 57.4741 35.3771C57.253 35.4827 56.9878 35.5752 56.9878 35.5752C57.2825 35.5752 57.4888 35.5356 57.6214 35.5092C57.813 35.6941 58.0046 35.8923 58.1814 36.0905C57.9456 36.1829 57.6656 36.249 57.6656 36.249C57.9604 36.2622 58.1667 36.249 58.2993 36.2358C58.4761 36.434 58.6382 36.6453 58.8003 36.8567C58.5645 36.936 58.2698 36.9756 58.2698 36.9756C58.5645 37.0152 58.7708 37.0153 58.9182 37.0153C59.0803 37.2266 59.2276 37.4512 59.3603 37.6758C59.1098 37.7287 58.8298 37.7551 58.8298 37.7551C59.1098 37.8212 59.3308 37.8344 59.4634 37.8344C59.596 38.0589 59.7287 38.2968 59.8318 38.5346C59.5813 38.5742 59.2866 38.5742 59.2866 38.5742C59.5666 38.6535 59.7729 38.6931 59.9202 38.7063C60.0381 38.9441 60.1265 39.1819 60.2297 39.4329C59.9792 39.4462 59.6845 39.4329 59.6845 39.4329C59.9497 39.5386 60.1707 39.5915 60.2886 39.6179C60.377 39.8557 60.4507 40.1067 60.5244 40.3577C60.2739 40.3577 59.9792 40.3181 59.9792 40.3181C60.2444 40.4502 60.436 40.5163 60.5686 40.5427C60.6275 40.7937 60.6865 41.0447 60.7307 41.2957C60.4802 41.2693 60.2002 41.2033 60.2002 41.2033C60.4507 41.3486 60.6423 41.4279 60.7602 41.4807C60.8044 41.7317 60.8338 41.996 60.8486 42.247C60.5981 42.2073 60.3328 42.1149 60.3328 42.1149C60.5686 42.2734 60.7454 42.3791 60.8633 42.4319C60.878 42.6169 60.878 42.8018 60.878 42.9868C60.8191 43.0661 60.8191 43.1453 60.8191 43.2246Z" fill="#FE1620"/>
<path d="M72.0748 24.1843L72.2778 23.337H76.9686L82.0013 33.9862L86.66 23.337H91.7568L91.5751 24.2421L89.6625 24.868V35.238L91.6927 35.8638L91.5003 36.663H84.8649L85.0358 35.8446L86.9271 35.2283V25.5997C86.3359 27.2751 85.6734 28.997 84.9397 30.7655C84.206 32.5339 83.3868 34.4195 82.4821 36.4223L80.2703 36.8074L75.3979 25.6575C75.5475 26.6781 75.6436 27.9202 75.6864 29.3838C75.7291 30.8473 75.754 32.6832 75.7612 34.8913V35.238L77.7593 35.8638L77.5883 36.663H72L72.1816 35.8349L74.0409 35.2283V24.8198L72.0748 24.1843ZM108.729 35.729L108.473 36.663H102.19L102.35 35.8446L104.07 35.2861L103.002 32.5227C101.378 32.6126 99.6217 32.6575 97.734 32.6575C97.4776 33.3443 97.2603 33.9156 97.0822 34.3714C96.9042 34.8271 96.7902 35.1224 96.7403 35.2572L98.8132 35.8735L98.6316 36.663H93.1501L93.3318 35.7579L95.0307 35.2187L99.8176 23.337L101.826 23L107.073 35.2861L108.729 35.729ZM102.478 31.1939L100.277 25.542C100.234 25.7859 100.038 26.3957 99.6894 27.3714C99.3404 28.3471 98.8738 29.6213 98.2897 31.1939H102.478ZM124.259 35.8157L124.098 36.663H117.591L117.752 35.8349L119.279 35.2572L116.33 31.2613L113.477 35.2669L115.198 35.8735L114.995 36.663H109.716L109.887 35.7675L111.437 35.2572L115.529 30.1926L111.362 24.7235L109.78 24.2902L109.973 23.337H116.416L116.256 24.1747L114.728 24.7428L117.677 28.7964L120.476 24.7331L118.777 24.1169L118.948 23.337H124.248L124.045 24.271L122.496 24.7235L118.489 29.8748L122.677 35.2957L124.259 35.8157ZM131.614 35.1802V24.2613L128.302 24.6561L126.838 27.0729L125.652 26.8611L126.528 23.2503L127.939 23.337H138.442L139.799 23.2118L140.259 26.89L139.051 27.1307L137.79 24.6657L134.35 24.2517V35.1898L136.775 35.7964L136.583 36.663H129.306L129.499 35.7964L131.614 35.1802ZM147.107 33.5481C147.438 34.1483 147.91 34.6185 148.523 34.9587C149.135 35.2989 149.851 35.4691 150.67 35.4691C151.112 35.4691 151.514 35.4113 151.878 35.2957C152.241 35.1802 152.547 35.0069 152.797 34.7758C153.431 34.1981 153.748 33.2962 153.748 32.0702V24.7813L151.643 24.1265L151.824 23.337H157.391L157.22 24.1554L155.585 24.8006V31.9065C155.585 32.972 155.352 33.8851 154.886 34.6458C154.419 35.4065 153.733 35.989 152.829 36.3934C151.924 36.7978 150.827 37 149.538 37C147.657 37 146.243 36.5747 145.296 35.7242C144.348 34.8737 143.874 33.6813 143.874 32.1472V24.762L142.047 24.1169L142.229 23.337H148.886L148.651 24.3191L146.61 24.868V31.5021C146.61 32.2659 146.776 32.948 147.107 33.5481ZM161.616 35.2283V24.762L159.607 24.1362L159.8 23.337H164.01L171.532 33.5241C171.411 32.221 171.334 30.9211 171.302 29.6245C171.27 28.3278 171.254 26.7038 171.254 24.7524L169.074 24.1362L169.256 23.337H174.983L174.823 24.1458L173.017 24.7717V36.5186L170.752 36.9037L163.048 26.3411C163.19 27.657 163.279 28.9746 163.315 30.2937C163.351 31.6128 163.368 33.2609 163.368 35.238L165.57 35.8638L165.377 36.663H159.618L159.789 35.8446L161.616 35.2283ZM187.628 35.1128L188.942 33.2737L190 33.4567L189.167 36.663H177.21L177.392 35.8253L179.315 35.2091V24.7428L177.317 24.1073L177.53 23.337H187.371L188.803 23.2118L189.177 26.5915L188.023 26.8226L186.976 24.7331L182.093 24.1843V29.5282C183.033 29.3934 184.006 29.2971 185.01 29.2393L185.694 27.6025L186.624 27.8047L186.442 32.2627L185.491 32.099L184.999 30.5681C183.845 30.5488 182.877 30.4654 182.093 30.3177V35.7098L187.628 35.1128Z" fill="#5D6771"/>
</svg>
